<svg class="" width="64" height="64" fill="none" stroke="#000000" stroke-width="2" stroke-linecap="round" stroke-linejoin="round" viewBox="0 0 24 24"><g><path d="M19.5333 18.0154H19.5384M17.0061 9.92838H22.0606C22.6189 9.92838 23.0714 10.381 23.0714 10.9393V19.0263C23.0714 19.5846 22.6189 20.0372 22.0606 20.0372H17.0061C16.4478 20.0372 15.9953 19.5846 15.9953 19.0263V10.9393C15.9953 10.381 16.4478 9.92838 17.0061 9.92838Z" stroke-width="1.67206" stroke-linecap="round" stroke-linejoin="round"></path><path stroke="none" fill-rule="evenodd" clip-rule="evenodd" d="M1.67206 5.69528C1.67206 5.14509 2.11807 4.69908 2.66826 4.69908H17.3261C17.8763 4.69908 18.3223 5.14509 18.3223 5.69528V8.41203H19.9943V5.69528C19.9943 4.22164 18.7997 3.02702 17.3261 3.02702H2.66826C1.19462 3.02702 0 4.22164 0 5.69528V14.8564C0 16.3301 1.19462 17.5247 2.66826 17.5247H9.16311V19.5171H6.33271C5.87099 19.5171 5.49668 19.8914 5.49668 20.3531C5.49668 20.8148 5.87099 21.1891 6.33271 21.1891H9.98877L9.99914 21.1892L10.0095 21.1891H13.6616C14.1233 21.1891 14.4976 20.8148 14.4976 20.3531C14.4976 19.8914 14.1233 19.5171 13.6616 19.5171H10.8352V17.5247H14.4832V15.8526H2.66826C2.11807 15.8526 1.67206 15.4066 1.67206 14.8564V5.69528Z" fill="#000000"></path></g></svg>