<?xml version="1.0" encoding="UTF-8" standalone="no"?>
<svg
   width="1041.277"
   height="554.141"
   viewBox="0 0 1041.277 554.141"
   version="1.1"
   id="svg160"
   sodipodi:docname="undraw_docusaurus_react.svg"
   inkscape:version="1.1.2 (0a00cf5339, 2022-02-04)"
   xmlns:inkscape="http://www.inkscape.org/namespaces/inkscape"
   xmlns:sodipodi="http://sodipodi.sourceforge.net/DTD/sodipodi-0.dtd"
   xmlns="http://www.w3.org/2000/svg"
   xmlns:svg="http://www.w3.org/2000/svg">
  <defs
     id="defs164" />
  <sodipodi:namedview
     id="namedview162"
     pagecolor="#505050"
     bordercolor="#ffffff"
     borderopacity="1"
     inkscape:pageshadow="0"
     inkscape:pageopacity="0"
     inkscape:pagecheckerboard="1"
     showgrid="false"
     inkscape:zoom="0.60502634"
     inkscape:cx="433.039"
     inkscape:cy="305.77181"
     inkscape:window-width="1920"
     inkscape:window-height="957"
     inkscape:window-x="1360"
     inkscape:window-y="148"
     inkscape:window-maximized="1"
     inkscape:current-layer="svg160" />
  <title
     id="title2">Powered by React</title>
  <g
     id="g835"
     transform="matrix(23.601132,0,0,23.601132,243.20009,-5.089784)"
     style="fill:#000000;fill-opacity:1;stroke:none;stroke-opacity:1">
    <g
       id="g6"
       style="fill:#000000;fill-opacity:1;stroke:none;stroke-opacity:1">
      <path
         d="m 19.5333,18.0154 h 0.0051 M 17.0061,9.92838 h 5.0545 c 0.5583,0 1.0108,0.45262 1.0108,1.01092 v 8.087 c 0,0.5583 -0.4525,1.0109 -1.0108,1.0109 h -5.0545 c -0.5583,0 -1.0108,-0.4526 -1.0108,-1.0109 v -8.087 c 0,-0.5583 0.4525,-1.01092 1.0108,-1.01092 z"
         stroke-width="1.67206"
         stroke-linecap="round"
         stroke-linejoin="round"
         id="path2"
         style="fill:none;fill-opacity:1;stroke:#2188ff;stroke-opacity:1" />
      <path
         stroke="none"
         fill-rule="evenodd"
         clip-rule="evenodd"
         d="m 1.67206,5.69528 c 0,-0.55019 0.44601,-0.9962 0.9962,-0.9962 H 17.3261 c 0.5502,0 0.9962,0.44601 0.9962,0.9962 v 2.71675 h 1.672 V 5.69528 c 0,-1.47364 -1.1946,-2.66826 -2.6682,-2.66826 H 2.66826 C 1.19462,3.02702 0,4.22164 0,5.69528 v 9.16112 c 0,1.4737 1.19462,2.6683 2.66826,2.6683 h 6.49485 v 1.9924 h -2.8304 c -0.46172,0 -0.83603,0.3743 -0.83603,0.836 0,0.4617 0.37431,0.836 0.83603,0.836 h 3.65606 l 0.01037,10e-5 0.01036,-10e-5 h 3.6521 c 0.4617,0 0.836,-0.3743 0.836,-0.836 0,-0.4617 -0.3743,-0.836 -0.836,-0.836 h -2.8264 v -1.9924 h 3.648 V 15.8526 H 2.66826 c -0.55019,0 -0.9962,-0.446 -0.9962,-0.9962 z"
         fill="#000000"
         id="path4"
         style="fill:#2188ff;fill-opacity:1;stroke:none;stroke-opacity:1" />
    </g>
  </g>
</svg>
