<?xml version="1.0" encoding="UTF-8" standalone="no"?>
<!-- Created with Inkscape (http://www.inkscape.org/) -->

<svg
   width="49.695183mm"
   height="8.7312498mm"
   viewBox="0 0 49.695183 8.7312498"
   version="1.1"
   id="svg1590"
   xmlns="http://www.w3.org/2000/svg"
   xmlns:svg="http://www.w3.org/2000/svg">
  <defs
     id="defs1587" />
  <g
     id="layer1"
     transform="translate(-45.587789,-109.15866)">
    <g
       id="g30740"
       transform="matrix(0.26079619,0,0,0.2607954,1397.21,-109.96445)">
      <g
         aria-label=" Metaspace"
         transform="matrix(0.30292535,0,0,0.30292535,-7007.2796,-13815.799)"
         id="text30738"
         style="font-weight:900;font-size:120px;line-height:1;font-family:Mulish;-inkscape-font-specification:'Mulish Heavy';white-space:pre;shape-inside:url(#rect34153);display:inline;fill:#2188ff">
        <path
           d="m 6023.2773,48466.189 v -84.6 h 19.2 l 27.72,62.04 h -3.96 l 27.6,-62.04 h 19.32 v 84.6 h -20.04 v -51.84 h 5.16 l -24,51.84 h -12.48 l -24.12,-51.84 h 5.52 v 51.84 z"
           style="text-align:center;text-anchor:middle;fill:#ffffff"
           id="path21758" />
        <path
           d="m 6159.9571,48467.509 q -16.56,0 -25.8,-8.52 -9.12,-8.52 -9.12,-23.4 0,-9.24 3.84,-16.44 3.84,-7.2 10.8,-11.16 6.96,-4.08 16.32,-4.08 9.24,0 15.36,4.08 6.24,3.96 9.36,11.04 3.12,6.96 3.12,16.2 v 4.56 h -40.92 v -10.08 h 25.2 l -2.04,1.68 q 0,-6.84 -2.64,-10.08 -2.52,-3.36 -7.2,-3.36 -5.4,0 -8.28,4.08 -2.76,3.96 -2.76,12 v 2.16 q 0,8.04 3.96,11.76 3.96,3.72 11.4,3.72 4.8,0 9,-1.08 4.32,-1.08 8.16,-3.48 l 5.52,13.92 q -4.56,3.12 -10.56,4.8 -6,1.68 -12.72,1.68 z"
           style="text-align:center;text-anchor:middle;fill:#ffffff"
           id="path21755" />
        <path
           d="m 6224.7567,48467.509 q -12.96,0 -19.56,-6.12 -6.48,-6.24 -6.48,-18.84 v -21.6 h -11.4 v -15.72 h 11.4 v -14.4 l 21.36,-5.04 v 19.44 h 14.88 v 15.72 h -14.88 v 20.76 q 0,5.28 2.4,7.08 2.4,1.68 5.76,1.68 2.04,0 3.48,-0.24 1.56,-0.36 3.24,-0.96 v 16.44 q -2.64,1.08 -5.28,1.44 -2.52,0.36 -4.92,0.36 z"
           style="text-align:center;text-anchor:middle;fill:#ffffff"
           id="path21752" />
        <path
           d="m 6267.2367,48467.509 q -7.92,0 -13.92,-3.72 -6,-3.84 -9.48,-11.04 -3.36,-7.2 -3.36,-17.04 0,-9.96 3.36,-17.04 3.48,-7.2 9.48,-10.92 6,-3.84 13.92,-3.84 7.08,0 12.72,3.36 5.76,3.36 7.56,8.76 h -1.2 l 1.32,-10.8 h 20.52 q -0.36,4.08 -0.72,8.28 -0.24,4.2 -0.24,8.28 v 44.4 h -21.12 l -0.24,-10.32 h 1.44 q -1.8,5.28 -7.56,8.52 -5.64,3.12 -12.48,3.12 z m 6.84,-15.84 q 5.4,0 8.76,-3.72 3.36,-3.84 3.36,-12.24 0,-8.4 -3.36,-12.12 -3.36,-3.84 -8.76,-3.84 -5.4,0 -8.76,3.84 -3.36,3.72 -3.36,12.12 0,8.4 3.24,12.24 3.36,3.72 8.88,3.72 z"
           style="text-align:center;text-anchor:middle;fill:#ffffff"
           id="path21749" />
        <path
           d="m 6343.9166,48467.509 q -8.52,0 -15.48,-1.68 -6.84,-1.8 -11.64,-4.8 l 5.16,-13.92 q 4.68,2.64 10.44,4.32 5.88,1.68 11.64,1.68 4.56,0 6.6,-1.32 2.16,-1.44 2.16,-3.72 0,-1.8 -1.32,-2.88 -1.32,-1.08 -3.96,-1.56 l -12.96,-2.28 q -7.68,-1.44 -12,-5.64 -4.2,-4.32 -4.2,-11.16 0,-6.24 3.36,-10.8 3.36,-4.68 9.6,-7.2 6.24,-2.64 14.76,-2.64 6.96,0 13.2,1.56 6.36,1.56 11.04,4.92 l -5.52,13.56 q -3.72,-2.52 -8.76,-4.08 -4.92,-1.68 -9.24,-1.68 -5.16,0 -7.32,1.56 -2.16,1.44 -2.16,3.6 0,1.68 1.2,2.88 1.2,1.08 3.84,1.56 l 12.96,2.28 q 7.92,1.32 12.12,5.52 4.32,4.08 4.32,11.16 0,6.6 -3.6,11.28 -3.48,4.56 -9.72,7.08 -6.24,2.4 -14.52,2.4 z"
           style="text-align:center;text-anchor:middle;fill:#ffffff"
           id="path21746" />
        <path
           d="m 6381.2364,48492.109 v -70.32 q 0,-4.08 -0.24,-8.28 -0.24,-4.2 -0.72,-8.28 h 20.64 l 1.32,10.8 h -1.2 q 1.68,-5.4 7.44,-8.76 5.76,-3.36 12.84,-3.36 7.92,0 13.92,3.84 6,3.72 9.36,10.92 3.48,7.08 3.48,17.04 0,9.84 -3.48,17.04 -3.36,7.2 -9.36,11.04 -6,3.72 -13.92,3.72 -6.96,0 -12.6,-3.12 -5.64,-3.24 -7.44,-8.52 h 1.32 v 36.24 z m 33.24,-40.44 q 5.52,0 8.76,-3.72 3.36,-3.84 3.36,-12.24 0,-8.4 -3.36,-12.12 -3.24,-3.84 -8.76,-3.84 -5.4,0 -8.76,3.84 -3.36,3.72 -3.36,12.12 0,8.4 3.36,12.24 3.36,3.72 8.76,3.72 z"
           style="text-align:center;text-anchor:middle;fill:#ffffff"
           id="path21743" />
        <path
           d="m 6482.5163,48467.509 q -7.92,0 -13.92,-3.72 -6,-3.84 -9.48,-11.04 -3.36,-7.2 -3.36,-17.04 0,-9.96 3.36,-17.04 3.48,-7.2 9.48,-10.92 6,-3.84 13.92,-3.84 7.08,0 12.72,3.36 5.76,3.36 7.56,8.76 h -1.2 l 1.32,-10.8 h 20.52 q -0.36,4.08 -0.72,8.28 -0.24,4.2 -0.24,8.28 v 44.4 h -21.12 l -0.24,-10.32 h 1.44 q -1.8,5.28 -7.56,8.52 -5.64,3.12 -12.48,3.12 z m 6.84,-15.84 q 5.4,0 8.76,-3.72 3.36,-3.84 3.36,-12.24 0,-8.4 -3.36,-12.12 -3.36,-3.84 -8.76,-3.84 -5.4,0 -8.76,3.84 -3.36,3.72 -3.36,12.12 0,8.4 3.24,12.24 3.36,3.72 8.88,3.72 z"
           style="text-align:center;text-anchor:middle;fill:#ffffff"
           id="path21740" />
        <path
           d="m 6566.6362,48467.509 q -10.08,0 -17.64,-3.84 -7.56,-3.84 -11.76,-10.92 -4.2,-7.2 -4.2,-17.16 0,-9.96 4.2,-17.04 4.2,-7.08 11.76,-10.8 7.56,-3.84 17.64,-3.84 6.24,0 12.24,1.68 6,1.68 9.72,4.8 l -6,14.52 q -2.88,-2.4 -6.6,-3.6 -3.6,-1.32 -7.08,-1.32 -6.6,0 -10.32,3.96 -3.6,3.96 -3.6,11.64 0,7.68 3.6,11.76 3.72,3.96 10.32,3.96 3.36,0 7.08,-1.2 3.72,-1.32 6.6,-3.6 l 6,14.52 q -3.84,3 -9.84,4.8 -5.88,1.68 -12.12,1.68 z"
           style="text-align:center;text-anchor:middle;fill:#ffffff"
           id="path21737" />
        <path
           d="m 6628.4361,48467.509 q -16.56,0 -25.8,-8.52 -9.12,-8.52 -9.12,-23.4 0,-9.24 3.84,-16.44 3.84,-7.2 10.8,-11.16 6.96,-4.08 16.32,-4.08 9.24,0 15.36,4.08 6.24,3.96 9.36,11.04 3.12,6.96 3.12,16.2 v 4.56 h -40.92 v -10.08 h 25.2 l -2.04,1.68 q 0,-6.84 -2.64,-10.08 -2.52,-3.36 -7.2,-3.36 -5.4,0 -8.28,4.08 -2.76,3.96 -2.76,12 v 2.16 q 0,8.04 3.96,11.76 3.96,3.72 11.4,3.72 4.8,0 9,-1.08 4.32,-1.08 8.16,-3.48 l 5.52,13.92 q -4.56,3.12 -10.56,4.8 -6,1.68 -12.72,1.68 z"
           style="text-align:center;text-anchor:middle;fill:#ffffff"
           id="path21734" />
      </g>
    </g>
  </g>
</svg>
