<?xml version="1.0" encoding="UTF-8" standalone="no"?>
<!-- Created with Inkscape (http://www.inkscape.org/) -->

<svg
   width="100mm"
   height="100mm"
   viewBox="0 0 100 100"
   version="1.1"
   id="svg24714"
   xmlns="http://www.w3.org/2000/svg"
   xmlns:svg="http://www.w3.org/2000/svg">
  <defs
     id="defs24711" />
  <g
     id="layer1"
     transform="translate(-37.01915,-77.501907)">
    <g
       id="g45163"
       style="fill:#2188ff;fill-opacity:1;stroke:none;stroke-opacity:1"
       transform="matrix(2.3016107,0,0,2.3016107,13252.327,6163.7378)">
      <path
         id="path45161"
         style="fill:#2188ff;fill-opacity:1;stroke:none;stroke-width:0.264583;stroke-opacity:1"
         d="m -5730.1784,-2635.648 v 2.8965 h 2.897 2.896 5e-4 2.8964 v -2.8965 h -2.8964 -5e-4 -2.896 -5e-4 z m 0,2.8965 h -2.8964 v 2.8965 2.8964 h 2.8964 v -2.8964 z m 0,5.7929 v 2.8965 2.8964 h 2.8965 v -2.8964 -2.8965 z m 2.8965,5.7929 v 2.897 2.8965 h 2.8965 v 2.8965 h 2.8964 v 2.8964 h 2.8965 v -2.8964 h 2.897 v -2.8965 h 2.8964 v -2.897 -2.8965 h -2.8969 v 2.897 2.896 h -2.896 v -2.896 0 -2.897 h -6e-4 v -2.8964 -2.8965 -2.8964 -2.8965 h 6e-4 2.8964 2.8965 2.8949 v 2.8965 2.8964 h 2.8965 v -2.8964 -2.8965 h -2.895 v -2.8965 h -2.8964 -5e-4 -2.896 -5e-4 -2.8959 -6e-4 -2.8964 v 2.8965 2.8965 2.8964 2.8965 2.8964 2.8965 0 2.8965 h -2.8964 v -2.8965 -2.8965 z m 17.3793,-5.7929 h -2.8965 v 2.8965 2.8964 h 2.8965 v -2.8964 z" />
    </g>
  </g>
</svg>
